<?xml version="1.0" standalone="no"?>
<!DOCTYPE svg PUBLIC "-//W3C//DTD SVG 20010904//EN"
 "http://www.w3.org/TR/2001/REC-SVG-20010904/DTD/svg10.dtd">
<svg version="1.0" xmlns="http://www.w3.org/2000/svg"
 width="278.000000pt" height="278.000000pt" viewBox="0 0 278.000000 278.000000"
 preserveAspectRatio="xMidYMid meet">
<metadata>
Created by potrace 1.11, written by Peter Selinger 2001-2013
</metadata>
<g transform="translate(0.000000,278.000000) scale(0.100000,-0.100000)"
fill="#000000" stroke="none">
<path d="M8 2538 c-2 -7 -3 -528 -3 -1158 l1 -1144 503 -1 c277 0 508 3 514 7
13 8 10 23 -124 565 -49 200 -91 375 -94 390 -3 16 -11 54 -19 85 -12 54 -8
78 14 78 15 0 50 -38 50 -54 0 -9 4 -16 10 -16 5 0 9 -3 8 -7 -2 -5 71 -158
161 -340 l165 -333 79 0 78 0 -22 33 c-13 17 -26 34 -29 37 -18 14 -50 105
-50 139 0 113 203 163 250 62 23 -48 21 -131 -5 -204 l-23 -67 62 0 61 0 39
83 c21 45 56 117 77 160 21 42 38 80 39 82 0 3 11 27 25 55 14 27 25 56 25 64
0 8 3 16 8 18 4 2 33 59 64 127 62 137 80 163 102 155 22 -9 23 -42 4 -118 -9
-38 -17 -72 -16 -75 0 -3 -1 -8 -2 -11 -1 -3 -3 -12 -5 -20 -1 -8 -8 -34 -14
-58 -7 -24 -14 -55 -16 -70 -2 -15 -11 -54 -19 -87 -26 -101 -156 -659 -156
-670 0 -7 162 -10 498 -9 273 1 503 2 510 3 9 1 12 239 12 1156 l0 1155 -456
-2 -456 -3 -120 -235 c-285 -559 -340 -665 -346 -672 -4 -4 -63 104 -132 240
-68 136 -150 295 -181 355 -31 59 -54 107 -50 107 3 0 -3 7 -13 15 -11 8 -17
15 -12 15 4 0 -14 41 -40 90 l-46 90 -453 0 c-354 0 -454 -3 -457 -12z"/>
</g>
</svg>
