<?xml version="1.0" standalone="no"?>
<!DOCTYPE svg PUBLIC "-//W3C//DTD SVG 20010904//EN"
 "http://www.w3.org/TR/2001/REC-SVG-20010904/DTD/svg10.dtd">
<svg version="1.0" xmlns="http://www.w3.org/2000/svg"
 width="609.000000pt" height="609.000000pt" viewBox="0 0 609.000000 609.000000"
 preserveAspectRatio="xMidYMid meet">
<metadata>
Created by potrace 1.11, written by Peter Selinger 2001-2013
</metadata>
<g transform="translate(0.000000,609.000000) scale(0.100000,-0.100000)"
fill="#000000" stroke="none">
<path d="M3655 5974 c-209 -57 -389 -105 -400 -108 -11 -2 -72 -18 -135 -35
-241 -65 -496 -133 -510 -136 -8 -2 -82 -22 -165 -44 -82 -22 -186 -50 -230
-62 -44 -12 -111 -30 -149 -41 -38 -11 -76 -21 -85 -23 -9 -2 -144 -38 -301
-80 -157 -42 -350 -94 -430 -115 -471 -125 -593 -159 -600 -167 -4 -5 -15 -48
-25 -98 -9 -49 -19 -97 -20 -105 -7 -30 -45 -213 -49 -234 -2 -11 -25 -122
-50 -246 -26 -124 -48 -234 -50 -245 -3 -11 -9 -42 -15 -70 -6 -27 -13 -61
-15 -75 -2 -14 -9 -45 -15 -70 -5 -25 -12 -58 -15 -75 -3 -16 -31 -151 -61
-300 -31 -148 -69 -335 -85 -415 -16 -80 -63 -310 -104 -511 -41 -202 -77
-377 -80 -390 -17 -97 -18 -93 11 -124 15 -17 62 -68 103 -115 41 -47 89 -101
107 -120 17 -19 40 -44 50 -56 10 -12 47 -54 83 -94 36 -40 72 -81 80 -90 24
-27 132 -149 314 -354 250 -282 300 -338 311 -350 6 -6 39 -45 75 -86 36 -41
72 -82 80 -90 13 -13 64 -70 176 -199 16 -18 38 -43 49 -55 11 -12 47 -53 80
-91 33 -37 69 -78 80 -89 11 -12 51 -57 90 -101 38 -44 75 -85 81 -92 6 -6 52
-58 103 -116 l92 -104 67 19 c37 10 153 41 257 69 105 28 237 64 295 79 58 16
173 46 255 68 83 22 254 68 380 102 127 34 262 70 300 80 39 10 165 44 280 75
116 31 233 62 260 70 28 7 221 59 430 115 209 56 493 132 630 169 l250 67 26
124 c26 124 83 402 93 450 3 14 7 36 10 50 10 43 58 284 63 310 2 14 11 54 19
90 8 36 17 79 20 95 3 17 21 102 40 190 19 88 36 171 38 185 2 14 14 74 26
134 12 60 24 119 26 130 2 12 6 30 8 41 30 140 38 180 75 365 17 85 33 164 35
175 2 11 20 98 40 192 20 95 38 187 41 205 3 18 10 49 16 68 5 19 12 58 15 85
5 49 4 51 -51 109 -30 32 -68 73 -83 91 -34 40 -232 265 -250 284 -7 7 -59 65
-115 129 -56 64 -109 123 -117 132 -8 9 -44 49 -80 90 -91 103 -231 261 -309
349 -87 97 -76 85 -161 181 -41 47 -77 87 -80 90 -3 3 -57 64 -120 135 -63 72
-117 132 -120 135 -3 3 -54 61 -115 130 -60 69 -112 127 -115 130 -3 3 -37 41
-75 85 -39 44 -79 89 -90 101 -11 11 -36 39 -55 62 -19 23 -39 42 -45 41 -5 0
-181 -47 -390 -105z m312 9 c-5 -8 -386 -638 -747 -1233 l-196 -325 -80 -21
c-43 -12 -189 -51 -324 -88 l-244 -65 -51 28 c-58 33 -77 43 -400 218 -132 72
-260 142 -285 155 -155 85 -256 141 -335 183 -49 27 -124 67 -165 90 -41 23
-141 77 -222 121 -81 43 -148 81 -148 85 0 3 80 26 178 52 97 26 242 65 322
86 185 50 1126 302 1780 477 278 75 579 156 670 181 91 24 176 47 190 49 13 3
27 7 29 10 8 7 32 4 28 -3z m108 -183 c20 -80 41 -156 45 -170 5 -14 27 -95
49 -180 23 -85 72 -270 110 -410 38 -140 67 -256 66 -258 -4 -4 -115 -35 -615
-169 -532 -142 -605 -161 -608 -158 -4 3 163 280 500 835 49 80 159 263 246
407 86 143 160 258 163 255 4 -4 23 -72 44 -152z m223 -92 c99 -112 189 -212
199 -224 130 -148 232 -263 248 -280 11 -11 47 -52 80 -89 33 -38 67 -76 75
-85 41 -43 42 -47 25 -74 -19 -28 -27 -31 -317 -107 -105 -28 -194 -47 -198
-42 -4 4 -39 130 -79 278 -102 384 -209 781 -216 805 -3 11 -4 20 -2 20 3 0
86 -91 185 -202z m-3460 -692 c64 -35 149 -80 187 -101 39 -21 162 -88 275
-150 113 -62 246 -134 295 -160 50 -27 107 -59 127 -72 21 -12 40 -23 43 -23
3 0 101 -52 218 -116 117 -64 229 -126 250 -136 20 -11 39 -23 42 -27 2 -4
-51 -22 -118 -39 -67 -18 -248 -66 -402 -107 -154 -42 -365 -98 -470 -126
-104 -28 -246 -66 -314 -85 -69 -19 -126 -32 -128 -31 -4 4 -14 96 -28 252 -3
33 -8 76 -10 95 -3 19 -7 60 -10 90 -7 70 -15 145 -20 190 -3 19 -7 67 -10
105 -4 39 -8 81 -10 95 -2 14 -6 59 -10 100 -3 41 -8 82 -10 90 -2 8 -7 49
-11 90 -3 41 -8 87 -9 103 -1 15 -1 27 2 27 2 0 57 -29 121 -64z m-154 -287
c4 -37 8 -82 11 -100 2 -19 6 -63 10 -99 3 -36 8 -81 10 -100 2 -19 9 -82 15
-140 6 -58 13 -121 15 -140 2 -19 7 -62 10 -95 10 -107 16 -169 20 -201 l4
-31 -175 -48 c-97 -26 -178 -45 -180 -42 -3 2 13 94 36 203 22 110 42 210 45
224 3 14 9 48 15 75 6 28 12 59 14 70 2 11 12 56 21 100 9 44 18 89 21 100 2
11 6 31 9 45 3 14 7 36 10 50 15 81 39 194 53 255 l16 70 7 -65 c4 -36 10 -95
13 -131z m4396 98 c30 -34 129 -145 219 -247 90 -102 192 -216 225 -254 34
-38 66 -74 71 -80 6 -6 48 -54 94 -106 46 -52 112 -126 147 -165 144 -161 132
-143 122 -194 -15 -77 -18 -89 -59 -286 -22 -104 -42 -203 -45 -220 -2 -16 -7
-37 -9 -45 -2 -8 -6 -26 -9 -40 -2 -14 -12 -61 -21 -105 -9 -44 -19 -91 -22
-105 -5 -32 -89 -443 -100 -492 l-8 -38 -230 126 c-126 69 -270 147 -320 174
-224 120 -207 107 -228 185 -23 89 -101 381 -172 645 -31 113 -58 213 -60 222
-2 10 -16 62 -31 115 -14 54 -38 145 -53 203 l-28 105 193 325 c106 178 201
327 209 330 46 16 61 9 115 -53z m-232 1 c-8 -13 -79 -132 -158 -265 -79 -134
-147 -239 -151 -235 -7 7 -109 382 -109 399 0 5 19 14 43 20 66 17 309 82 342
92 45 14 49 13 33 -11z m-478 -125 c0 -5 11 -48 25 -98 77 -286 96 -362 92
-376 -3 -9 -71 -129 -153 -265 -82 -137 -151 -254 -154 -259 -20 -42 -193
-325 -199 -325 -3 0 -26 12 -50 25 -24 14 -87 49 -140 77 -53 28 -127 68 -164
90 -38 21 -70 38 -72 38 -2 0 -34 17 -72 38 -37 21 -102 57 -143 79 -179 96
-418 227 -457 249 l-42 24 111 184 111 184 46 12 c25 7 60 16 76 21 30 9 234
64 740 199 149 39 297 80 330 90 64 19 115 25 115 13z m-1424 -405 c-15 -24
-56 -93 -93 -155 l-67 -112 -111 59 c-60 32 -134 72 -163 88 l-52 28 212 58
c117 32 224 60 238 63 13 2 27 6 29 9 2 2 11 4 18 4 10 0 7 -12 -11 -42z
m-386 -219 c102 -55 186 -102 187 -103 4 -3 -701 -1167 -707 -1169 -3 -1 -221
115 -485 257 -264 143 -500 271 -525 284 -134 71 -150 83 -151 110 0 15 -2 36
-4 47 -2 11 -5 47 -8 80 -3 33 -9 90 -13 126 l-6 66 63 17 c35 9 72 19 81 21
10 3 26 7 35 9 10 2 52 13 93 24 88 24 852 229 1020 274 63 17 135 36 160 43
25 7 52 14 60 14 9 1 99 -44 200 -100z m2000 -89 c18 -69 50 -188 71 -265 20
-77 49 -183 63 -235 13 -52 34 -129 45 -170 70 -258 109 -405 106 -408 -1 -1
-128 66 -281 149 -154 84 -310 169 -349 190 -38 21 -93 50 -122 66 l-52 29
219 369 c260 440 253 428 261 412 3 -7 21 -68 39 -137z m-1609 -124 c75 -41
165 -89 200 -109 148 -81 649 -353 709 -385 36 -19 70 -40 77 -46 13 -11 -2
-36 -500 -873 -99 -167 -184 -303 -187 -303 -6 0 -90 45 -244 129 -28 16 -91
50 -141 76 -318 171 -751 407 -758 414 -4 4 145 259 331 567 186 307 344 569
351 582 6 12 15 22 19 22 4 0 68 -33 143 -74z m-2156 -196 c13 -145 16 -173
21 -181 7 -12 -16 -22 -29 -11 -7 5 -46 27 -87 49 -195 104 -251 136 -248 138
4 5 6 5 173 51 83 23 153 39 156 35 4 -3 10 -40 14 -81z m-125 -200 c36 -20
84 -45 107 -56 37 -17 43 -24 48 -59 8 -60 14 -108 20 -188 3 -40 8 -81 10
-93 3 -11 7 -52 11 -90 3 -38 8 -80 9 -94 1 -14 6 -61 10 -105 4 -44 9 -88 10
-97 2 -9 6 -49 10 -90 3 -40 8 -84 10 -98 2 -14 7 -54 10 -90 5 -63 12 -128
20 -200 2 -19 7 -62 10 -95 3 -33 7 -76 10 -95 2 -19 7 -64 10 -100 3 -36 8
-76 10 -90 2 -14 7 -59 10 -100 4 -41 8 -88 10 -105 2 -16 7 -64 11 -105 3
-41 8 -82 9 -91 2 -9 6 -52 10 -95 4 -43 8 -90 10 -103 5 -30 16 -40 -141 139
-60 69 -114 130 -120 135 -6 6 -80 89 -165 185 -193 219 -204 232 -270 305
-30 33 -81 91 -114 128 -33 38 -72 83 -88 100 -15 17 -27 36 -27 43 0 6 21
112 46 235 25 123 48 235 50 249 3 14 19 88 35 165 16 77 32 154 35 170 3 17
19 95 35 175 17 80 40 193 52 252 l21 107 106 -56 c58 -31 134 -73 170 -93z
m395 -213 c72 -38 149 -80 172 -93 23 -12 189 -102 370 -200 411 -222 386
-208 390 -220 2 -5 -79 -145 -179 -310 -101 -166 -300 -496 -443 -732 -143
-237 -263 -431 -266 -432 -3 0 -6 23 -8 52 -1 28 -4 54 -6 57 -2 3 -6 44 -10
91 -4 47 -8 92 -10 100 -2 8 -6 51 -9 95 -4 44 -9 87 -11 95 -2 8 -7 56 -10
105 -4 50 -8 92 -10 95 -1 3 -6 39 -9 80 -4 41 -9 93 -12 115 -2 22 -6 60 -8
85 -5 50 -34 333 -41 395 -2 22 -7 67 -10 100 -3 33 -8 76 -10 95 -2 19 -7 64
-10 100 -6 66 -12 116 -20 180 -2 19 -7 64 -10 100 -3 36 -8 82 -11 103 -5 37
-5 38 18 26 13 -6 82 -43 153 -82z m3165 -87 c58 -32 132 -72 165 -90 84 -45
173 -94 375 -204 l105 -57 68 -262 c38 -144 73 -275 78 -292 32 -104 69 -259
62 -266 -20 -19 -709 -449 -720 -449 -7 0 -86 40 -175 89 -90 48 -194 105
-233 126 -136 73 -201 108 -296 161 -54 30 -99 54 -102 54 -3 0 -43 21 -89 48
-46 26 -100 55 -121 66 -29 15 -34 22 -27 35 5 9 79 136 166 281 86 146 236
398 332 560 96 162 179 300 184 307 10 12 7 13 228 -107z m856 -466 c12 -7 50
-28 85 -47 35 -19 89 -48 119 -64 30 -17 91 -50 135 -73 44 -24 109 -60 145
-80 36 -20 73 -39 83 -43 34 -13 16 -33 -85 -95 -57 -35 -173 -108 -258 -162
-85 -54 -158 -96 -161 -92 -4 4 -21 61 -38 127 -17 66 -40 154 -52 195 -11 41
-38 143 -60 227 -22 84 -42 159 -45 168 -6 14 60 -16 132 -61z m-2696 -164
c135 -73 268 -145 295 -160 28 -15 93 -50 145 -78 282 -152 385 -211 382 -221
-1 -7 -165 -285 -363 -619 -199 -334 -369 -620 -379 -637 -23 -40 -191 -324
-270 -455 -34 -58 -70 -118 -80 -135 -57 -99 -77 -129 -85 -131 -6 -1 -53 47
-105 107 -120 138 -138 159 -212 241 -33 37 -69 78 -80 90 -11 13 -34 39 -51
58 -18 20 -63 71 -102 115 -38 44 -77 87 -85 95 -25 27 -81 90 -150 170 -36
41 -70 80 -75 85 -6 6 -23 24 -39 42 l-28 31 192 319 c106 175 212 349 234
387 48 80 23 38 306 504 l224 370 41 -23 c22 -13 150 -83 285 -155z m3244
-335 c-8 -39 -17 -83 -20 -100 -3 -16 -21 -106 -40 -200 -19 -93 -55 -267 -79
-385 -24 -118 -51 -251 -60 -295 -10 -44 -19 -87 -20 -95 -2 -8 -4 -21 -4 -29
-2 -28 -11 -3 -40 105 -16 60 -68 254 -115 432 -48 178 -86 327 -84 332 3 8
470 309 475 306 1 -1 -4 -33 -13 -71z m-2268 -193 c49 -27 125 -68 169 -91 90
-49 408 -222 470 -256 22 -12 98 -52 168 -90 70 -38 124 -72 120 -76 -6 -5
-1438 -909 -2116 -1336 l-38 -24 28 49 c32 56 1107 1871 1109 1872 1 0 41 -22
90 -48z m1809 -319 c35 -131 82 -308 105 -393 72 -266 78 -290 73 -290 -3 0
-55 27 -116 61 -134 73 -160 87 -487 264 -308 166 -311 168 -308 177 3 8 661
426 666 422 2 -1 32 -109 67 -241z m-761 -248 c26 -14 71 -38 99 -54 43 -24
372 -202 602 -326 204 -111 207 -113 189 -118 -20 -6 -593 -160 -919 -246
-104 -28 -224 -60 -265 -72 -41 -11 -82 -22 -90 -24 -8 -2 -127 -33 -265 -70
-137 -37 -358 -96 -490 -132 -132 -35 -330 -88 -440 -118 -110 -29 -279 -74
-375 -100 -96 -26 -184 -49 -195 -52 -11 -3 -18 -3 -15 -1 3 3 282 180 620
393 338 213 692 436 785 495 94 59 283 178 420 265 138 86 259 163 270 171 11
7 20 13 21 13 1 1 22 -10 48 -24z"/>
</g>
</svg>
